<svg width="655" height="152" viewBox="0 0 655 152" fill="none" xmlns="http://www.w3.org/2000/svg">
<rect width="152" height="152" rx="30" fill="url(#paint0_linear_201_2)"/>
<path d="M49.1263 69.2893L52.3257 104.276L37.5824 123.282L33.7122 93.9109L49.1263 69.2893Z" fill="white"/>
<path d="M103.4 69.2893L100.197 104.276L114.94 123.282L118.814 93.9109L103.4 69.2893Z" fill="white"/>
<path d="M94.3435 30.7653C89.3609 20.2859 81.5038 14 76.2631 14C71.0225 14 63.1654 20.2902 58.1828 30.7653H94.3435Z" fill="white"/>
<path d="M96.3471 35.6829H56.1792C54.4086 40.8446 53.3546 46.756 53.5004 53.2482C53.9294 71.8577 58.3121 104.71 58.3121 104.71L91.0107 104.706L94.2101 104.71C94.2101 104.71 98.5969 71.8531 99.0176 53.2482C99.1717 46.756 98.1177 40.8403 96.3471 35.6829ZM76.2631 76.2528C69.9768 76.2528 64.8817 71.1078 64.8817 64.7546C64.8817 58.4013 69.9808 53.2563 76.2631 53.2563C82.5455 53.2563 87.6404 58.4013 87.6361 64.7546C87.6404 71.1081 82.5455 76.2528 76.2631 76.2528Z" fill="white"/>
<path d="M122.526 151.962C120.897 147.221 116.431 143.819 111.186 143.819C109.507 143.819 107.908 144.164 106.45 144.796C105.95 139.251 101.334 134.91 95.7181 134.91C94.9058 134.91 94.1184 134.998 93.3602 135.171C93.3684 135.019 93.3684 134.868 93.3684 134.716C93.3684 130.531 90.0106 127.138 85.8697 127.138C84.795 127.138 83.7701 127.365 82.8452 127.778C80.2499 123.138 79.4956 111.029 79.4956 111.029H72.6968C72.6968 111.029 71.826 124.326 68.7474 128.73C68.0307 128.435 67.2394 128.275 66.4145 128.275C62.9441 128.275 60.1321 131.117 60.1321 134.624C60.1321 134.889 60.1489 135.15 60.1822 135.407C59.1906 135.083 59.3074 134.91 58.2076 134.91C53.8127 134.91 50.0674 137.714 48.6258 141.646C47.0136 140.968 45.2472 140.594 43.3934 140.594C36.6863 140.594 31.1121 145.503 30 151.962H122.526Z" fill="white"/>
<path d="M198.12 107V44H221.43C226.47 44 230.64 44.84 233.94 46.52C237.24 48.2 239.7 50.51 241.32 53.45C242.94 56.39 243.75 59.69 243.75 63.35C243.75 66.83 242.97 70.04 241.41 72.98C239.85 75.86 237.42 78.2 234.12 80C230.82 81.74 226.59 82.61 221.43 82.61H209.64V107H198.12ZM209.64 73.25H220.71C224.73 73.25 227.61 72.38 229.35 70.64C231.15 68.84 232.05 66.41 232.05 63.35C232.05 60.23 231.15 57.8 229.35 56.06C227.61 54.26 224.73 53.36 220.71 53.36H209.64V73.25ZM241.97 107L265.01 44H277.97L301.01 107H288.77L283.73 92.42H259.16L254.03 107H241.97ZM262.31 83.42H280.58L271.4 57.23L262.31 83.42ZM333.062 108.08C327.122 108.08 321.932 106.73 317.492 104.03C313.052 101.33 309.602 97.58 307.142 92.78C304.682 87.92 303.452 82.28 303.452 75.86C303.452 69.38 304.712 63.68 307.232 58.76C309.812 53.78 313.442 49.91 318.122 47.15C322.862 44.33 328.472 42.92 334.952 42.92C342.332 42.92 348.452 44.69 353.312 48.23C358.172 51.77 361.322 56.66 362.762 62.9H349.892C348.932 59.96 347.192 57.68 344.672 56.06C342.152 54.38 338.912 53.54 334.952 53.54C328.652 53.54 323.792 55.55 320.372 59.57C316.952 63.53 315.242 68.99 315.242 75.95C315.242 82.91 316.922 88.31 320.282 92.15C323.702 95.93 328.322 97.82 334.142 97.82C339.842 97.82 344.132 96.29 347.012 93.23C349.952 90.11 351.722 86.03 352.322 80.99H336.392V72.35H363.932V107H353.312L352.412 98.72C350.372 101.72 347.822 104.03 344.762 105.65C341.702 107.27 337.802 108.08 333.062 108.08ZM375.132 107V44H416.262V53.27H386.652V70.55H413.562V79.55H386.652V97.73H416.262V107H375.132ZM427.703 107V44H448.403C453.323 44 457.373 44.81 460.553 46.43C463.733 48.05 466.073 50.24 467.573 53C469.133 55.76 469.913 58.88 469.913 62.36C469.913 65.78 469.163 68.87 467.663 71.63C466.163 74.39 463.823 76.61 460.643 78.29C457.463 79.91 453.383 80.72 448.403 80.72H435.263V107H427.703ZM435.263 74.33H448.223C453.263 74.33 456.833 73.28 458.933 71.18C461.093 69.02 462.173 66.08 462.173 62.36C462.173 58.58 461.093 55.64 458.933 53.54C456.833 51.38 453.263 50.3 448.223 50.3H435.263V74.33ZM479.822 107V44H487.382V107H479.822ZM500.74 107V44H508.3V100.97H537.64V107H500.74ZM570.757 108.08C564.577 108.08 559.147 106.73 554.467 104.03C549.847 101.27 546.217 97.43 543.577 92.51C540.997 87.59 539.707 81.92 539.707 75.5C539.707 69.08 540.997 63.44 543.577 58.58C546.217 53.66 549.847 49.82 554.467 47.06C559.147 44.3 564.577 42.92 570.757 42.92C576.997 42.92 582.427 44.3 587.047 47.06C591.727 49.82 595.357 53.66 597.937 58.58C600.517 63.44 601.807 69.08 601.807 75.5C601.807 81.92 600.517 87.59 597.937 92.51C595.357 97.43 591.727 101.27 587.047 104.03C582.427 106.73 576.997 108.08 570.757 108.08ZM570.757 101.42C575.377 101.42 579.427 100.4 582.907 98.36C586.447 96.26 589.177 93.29 591.097 89.45C593.077 85.55 594.067 80.9 594.067 75.5C594.067 70.1 593.077 65.48 591.097 61.64C589.177 57.8 586.447 54.86 582.907 52.82C579.427 50.72 575.377 49.67 570.757 49.67C566.137 49.67 562.057 50.72 558.517 52.82C555.037 54.86 552.307 57.8 550.327 61.64C548.407 65.48 547.447 70.1 547.447 75.5C547.447 80.9 548.407 85.55 550.327 89.45C552.307 93.29 555.037 96.26 558.517 98.36C562.057 100.4 566.137 101.42 570.757 101.42ZM624.221 107V50.21H605.411V44H650.591V50.21H631.781V107H624.221Z" fill="white"/>
<defs>
<linearGradient id="paint0_linear_201_2" x1="0" y1="0" x2="152" y2="152" gradientUnits="userSpaceOnUse">
<stop stop-color="#868CFF"/>
<stop offset="1" stop-color="#4318FF"/>
</linearGradient>
</defs>
</svg>
